<?xml version="1.0" standalone="no"?>
<!DOCTYPE svg PUBLIC "-//W3C//DTD SVG 20010904//EN"
 "http://www.w3.org/TR/2001/REC-SVG-20010904/DTD/svg10.dtd">
<svg version="1.0" xmlns="http://www.w3.org/2000/svg"
 width="1024.000000pt" height="1024.000000pt" viewBox="0 0 1024.000000 1024.000000"
 preserveAspectRatio="xMidYMid meet">
<metadata>
Created by potrace 1.14, written by Peter Selinger 2001-2017
</metadata>
<g transform="translate(0.000000,1024.000000) scale(0.100000,-0.100000)"
fill="#000000" stroke="none">
<path d="M4810 9359 c-1184 -90 -2263 -658 -3007 -1584 -506 -630 -811 -1368
-910 -2203 -24 -206 -24 -698 0 -904 63 -531 197 -989 422 -1438 101 -202 159
-302 286 -490 621 -923 1602 -1574 2694 -1789 804 -158 1625 -84 2385 216 789
311 1486 871 1959 1573 127 188 185 288 286 490 225 449 359 907 422 1438 24
206 24 698 0 904 -124 1049 -571 1940 -1332 2657 -567 534 -1299 908 -2070
1060 -364 71 -780 97 -1135 70z m770 -344 c1693 -206 3055 -1466 3385 -3130
57 -289 69 -422 69 -765 0 -343 -12 -476 -69 -765 -308 -1555 -1525 -2772
-3080 -3080 -289 -57 -422 -69 -765 -69 -343 0 -476 12 -765 69 -1555 308
-2772 1525 -3080 3080 -57 289 -69 422 -69 765 0 343 12 476 69 765 262 1321
1186 2416 2448 2899 345 133 710 213 1137 250 108 9 592 -3 720 -19z"/>
<path d="M4721 8340 c-98 -36 -181 -116 -221 -214 l-22 -53 -77 -18 c-427
-100 -861 -319 -1215 -614 l-80 -66 -105 0 c-98 0 -111 -2 -173 -32 -170 -80
-260 -264 -214 -441 l16 -64 -64 -101 c-252 -404 -401 -834 -451 -1302 -27
-259 -15 -610 31 -855 206 -1114 1003 -2011 2090 -2351 65 -20 72 -25 94 -67
36 -68 103 -130 178 -165 61 -29 76 -32 162 -32 85 0 102 3 160 31 36 17 83
47 104 67 l39 37 161 0 c1536 1 2829 1170 2991 2705 35 335 10 712 -71 1040
-21 83 -101 343 -109 353 -1 2 -70 -27 -153 -64 l-150 -66 29 -82 c59 -169
105 -383 129 -591 15 -132 12 -441 -5 -586 -57 -488 -249 -956 -553 -1349 -91
-117 -306 -335 -427 -433 -467 -377 -1072 -597 -1640 -597 l-130 0 -18 50
c-34 97 -127 187 -230 226 -37 13 -76 19 -132 18 -116 -1 -182 -29 -265 -113
-43 -43 -72 -64 -84 -62 -48 7 -285 105 -414 171 -271 137 -489 298 -707 521
-209 214 -346 405 -479 669 -195 386 -286 769 -286 1210 0 348 53 638 175 965
44 118 153 337 223 449 l49 80 104 0 c96 1 109 4 170 33 80 39 151 112 186
191 33 74 41 186 19 257 -8 27 -12 53 -8 56 4 4 45 37 92 75 275 220 632 400
976 494 l120 33 48 -46 c114 -111 290 -142 432 -75 54 25 135 96 165 145 l22
36 106 -7 c207 -12 451 -60 647 -125 l112 -38 67 150 c36 82 65 151 63 152 -2
1 -59 21 -128 43 -245 81 -460 124 -714 144 l-154 12 -18 33 c-25 47 -102 116
-165 149 -74 38 -216 45 -298 14z"/>
<path d="M6055 7314 c-253 -570 -462 -1037 -466 -1040 -4 -2 -39 8 -80 21
-179 61 -436 78 -622 42 -303 -60 -583 -236 -761 -479 l-48 -65 -64 -6 c-253
-20 -413 -308 -302 -544 25 -52 100 -138 139 -158 23 -12 29 -23 34 -62 15
-124 38 -230 66 -310 147 -417 501 -723 936 -810 119 -23 347 -23 466 0 499
99 885 485 984 984 36 186 19 443 -42 623 -14 41 -22 77 -18 81 5 4 469 213
1032 463 564 251 1029 460 1034 465 11 11 -76 195 -163 346 -295 514 -703 935
-1213 1255 -103 65 -421 230 -441 230 -6 0 -218 -467 -471 -1036z m-805 -1294
c77 -12 200 -48 200 -58 0 -4 -50 -121 -111 -259 -110 -249 -112 -253 -138
-246 -58 16 -157 6 -217 -21 -225 -103 -279 -389 -106 -559 103 -101 252 -130
377 -73 125 56 207 177 209 305 0 36 -3 78 -7 92 -7 26 -3 28 246 138 138 61
255 111 259 111 4 0 16 -29 27 -64 100 -323 5 -688 -240 -922 -80 -76 -137
-114 -241 -164 -137 -65 -220 -83 -388 -83 -168 0 -251 18 -388 83 -104 50
-161 88 -241 164 -146 140 -245 338 -275 549 -5 36 -3 38 47 70 66 42 113 96
146 167 23 48 26 68 26 160 0 98 -2 109 -32 168 l-31 62 37 48 c198 248 532
380 841 332z"/>
</g>
</svg>
